<svg width="481" height="300" viewBox="0 0 481 300" fill="none" xmlns="http://www.w3.org/2000/svg">
<path d="M441.495 142.135V128.671C441.495 127.4 441.245 126.141 440.759 124.966C440.272 123.792 439.559 122.725 438.661 121.826C437.762 120.927 436.695 120.214 435.521 119.727C434.347 119.241 433.088 118.99 431.817 118.99H405.057C402.491 118.99 400.029 117.97 398.214 116.155C396.399 114.339 395.38 111.877 395.38 109.31V95.8457C395.38 90.4992 407.112 86.1651 412.457 86.1651H413.535C416.102 86.1651 418.563 85.1451 420.378 83.3297C422.193 81.5142 423.213 79.0519 423.213 76.4845V63.0205C423.213 61.7492 422.963 60.4904 422.476 59.3159C421.99 58.1413 421.277 57.0742 420.378 56.1752C419.48 55.2763 418.413 54.5632 417.239 54.0767C416.065 53.5902 414.806 53.3398 413.535 53.3398H86.5577C85.2868 53.3398 84.0284 53.5902 82.8542 54.0767C81.68 54.5632 80.6132 55.2763 79.7145 56.1752C78.8158 57.0742 78.103 58.1413 77.6166 59.3159C77.1303 60.4904 76.8799 61.7492 76.8799 63.0205V76.4845C76.8799 77.7557 77.1303 79.0146 77.6166 80.1891C78.103 81.3636 78.8158 82.4307 79.7145 83.3297C80.6132 84.2286 81.68 84.9417 82.8542 85.4282C84.0284 85.9147 85.2868 86.1651 86.5577 86.1651C89.1244 86.1651 91.586 87.185 93.401 89.0005C95.2159 90.8159 96.2355 93.2782 96.2355 95.8457V109.31C96.2355 111.877 95.2159 114.339 93.401 116.155C91.5861 117.97 89.1245 118.99 86.5578 118.99H49.1329C47.862 118.99 46.6035 119.241 45.4293 119.727C44.2552 120.214 43.1883 120.927 42.2896 121.826C41.391 122.725 40.6781 123.792 40.1918 124.966C39.7054 126.141 39.4551 127.4 39.4551 128.671V142.135C39.4551 144.702 40.4747 147.165 42.2896 148.98C44.1046 150.796 46.5662 151.815 49.1329 151.815H63.8178C66.3845 151.815 68.8461 152.835 70.661 154.651C72.476 156.466 73.4956 158.929 73.4956 161.496V174.96C73.4956 176.231 73.2453 177.49 72.7589 178.665C72.2726 179.839 71.5597 180.907 70.6611 181.805C69.7624 182.704 68.6955 183.417 67.5214 183.904C66.3472 184.39 65.0887 184.641 63.8178 184.641H63.7823C61.2156 184.641 58.754 185.661 56.9391 187.476C55.1241 189.292 54.1045 191.754 54.1045 194.321V207.785C54.1045 209.057 54.3548 210.315 54.8412 211.49C55.3275 212.664 56.0404 213.732 56.9391 214.631C57.8377 215.53 58.9046 216.243 60.0788 216.729C61.2529 217.216 62.5114 217.466 63.7823 217.466H65.9069C68.4736 217.466 70.9352 218.486 72.7501 220.301C74.5651 222.117 75.5847 224.579 75.5847 227.147V240.611C75.5847 243.178 74.5651 245.64 72.7502 247.456C70.9352 249.271 68.4736 250.291 65.9069 250.291H53.2361C51.9652 250.291 50.7067 250.542 49.5326 251.028C48.3584 251.515 47.2915 252.228 46.3929 253.127C45.4942 254.026 44.7814 255.093 44.295 256.267C43.8086 257.442 43.5583 258.701 43.5583 259.972V273.436C43.5583 276.003 44.5779 278.466 46.3929 280.281C48.2078 282.097 50.6694 283.116 53.2361 283.116H411.332C413.898 283.116 416.36 282.097 418.175 280.281C419.99 278.466 421.009 276.003 421.009 273.436V259.972C421.009 258.701 420.759 257.442 420.273 256.267C419.786 255.093 419.074 254.026 418.175 253.127C417.276 252.228 416.209 251.515 415.035 251.028C413.861 250.542 412.603 250.291 411.332 250.291H402.941C400.374 250.291 397.912 249.271 396.097 247.456C394.282 245.64 393.263 243.178 393.263 240.611V227.147C393.263 224.579 394.282 222.117 396.097 220.301C397.912 218.486 400.374 217.466 402.941 217.466H422.726C425.293 217.466 427.754 216.446 429.569 214.631C431.384 212.815 432.404 210.353 432.404 207.785V194.321C432.404 191.754 431.384 189.292 429.569 187.476C427.754 185.661 425.293 184.641 422.726 184.641H416.724C414.157 184.641 411.696 183.621 409.881 181.805C408.066 179.99 407.046 177.528 407.046 174.96V161.496C407.046 158.929 408.066 156.466 409.881 154.651C411.696 152.835 414.157 151.815 416.724 151.815H431.817C434.384 151.815 436.846 150.796 438.661 148.98C440.476 147.165 441.495 144.702 441.495 142.135Z" fill="#196C67" fill-opacity="0.15"/>
<path d="M164.102 118.544C164.099 123.453 162.149 128.161 158.68 131.633C155.21 135.105 150.505 137.058 145.597 137.062H76.4513C72.9312 137.062 69.5353 135.761 66.9165 133.408C64.2976 131.055 62.6407 127.817 62.2644 124.316C61.8881 120.815 62.8189 117.299 64.8778 114.443C66.9368 111.587 69.9785 109.593 73.4182 108.845C73.6934 104.679 75.5405 100.773 78.5858 97.9173C81.631 95.0619 85.647 93.4704 89.821 93.4648C91.5112 93.4649 93.1906 93.7333 94.7967 94.26C97.2334 89.5456 101.055 85.6908 105.747 83.214C110.44 80.7373 115.778 79.7575 121.044 80.4064C126.31 81.0553 131.251 83.3018 135.202 86.8437C139.153 90.3856 141.925 95.0529 143.145 100.218C145.758 99.8647 148.416 100.075 150.941 100.834C153.466 101.593 155.799 102.884 157.784 104.62C159.769 106.356 161.36 108.497 162.45 110.898C163.539 113.3 164.102 115.907 164.102 118.544Z" fill="#F9AE2B"/>
<path d="M284.338 227.282L270.592 206.839C281.674 196.99 288.658 183.34 290.163 168.587C291.668 153.835 287.584 139.055 278.72 127.17C269.855 115.284 256.854 107.159 242.289 104.4C227.723 101.641 212.653 104.45 200.058 112.271C187.463 120.092 178.26 132.355 174.269 146.637C170.278 160.918 171.79 176.177 178.505 189.397C185.221 202.617 196.651 212.836 210.535 218.032C224.42 223.228 239.748 223.023 253.489 217.459L266.89 237.297C267.547 238.443 268.424 239.448 269.47 240.256C270.515 241.063 271.71 241.656 272.985 242.001C274.26 242.347 275.59 242.437 276.9 242.268C278.21 242.099 279.474 241.674 280.62 241.016C281.766 240.359 282.771 239.482 283.578 238.436C284.385 237.39 284.978 236.195 285.323 234.919C285.668 233.644 285.759 232.313 285.59 231.003C285.421 229.692 284.996 228.428 284.338 227.282Z" fill="#196C67"/>
<path d="M231.399 204.694C254.711 204.694 273.61 185.79 273.61 162.47C273.61 139.151 254.711 120.247 231.399 120.247C208.086 120.247 189.188 139.151 189.188 162.47C189.188 185.79 208.086 204.694 231.399 204.694Z" fill="#EE781D"/>
<path d="M231.398 120.247C229.383 120.249 227.371 120.394 225.376 120.682C235.424 122.13 244.613 127.152 251.26 134.827C257.906 142.502 261.565 152.316 261.565 162.47C261.565 172.625 257.906 182.439 251.26 190.114C244.613 197.789 235.424 202.811 225.376 204.259C231.114 205.086 236.961 204.723 242.553 203.19C248.144 201.658 253.36 198.99 257.875 195.352C262.39 191.715 266.108 187.186 268.796 182.048C271.485 176.91 273.086 171.273 273.501 165.489C273.916 159.704 273.134 153.897 271.206 148.428C269.278 142.958 266.245 137.945 262.295 133.701C258.344 129.456 253.562 126.071 248.247 123.756C242.931 121.441 237.196 120.247 231.398 120.247Z" fill="#E06714"/>
<path d="M208.79 169.827C212.397 169.827 215.322 166.902 215.322 163.293C215.322 159.684 212.397 156.758 208.79 156.758C205.182 156.758 202.257 159.684 202.257 163.293C202.257 166.902 205.182 169.827 208.79 169.827Z" fill="#F9AE2B"/>
<path d="M252.52 158.952C255.017 158.952 257.042 156.926 257.042 154.428C257.042 151.929 255.017 149.904 252.52 149.904C250.022 149.904 247.997 151.929 247.997 154.428C247.997 156.926 250.022 158.952 252.52 158.952Z" fill="#E06714"/>
<path d="M227.267 148.556C228.933 148.556 230.283 147.206 230.283 145.54C230.283 143.875 228.933 142.524 227.267 142.524C225.602 142.524 224.252 143.875 224.252 145.54C224.252 147.206 225.602 148.556 227.267 148.556Z" fill="#E06714"/>
<path d="M228.384 188.721C230.049 188.721 231.399 187.371 231.399 185.705C231.399 184.04 230.049 182.689 228.384 182.689C226.718 182.689 225.368 184.04 225.368 185.705C225.368 187.371 226.718 188.721 228.384 188.721Z" fill="#E06714"/>
<path d="M245.808 178.74C248.06 178.74 249.887 176.913 249.887 174.66C249.887 172.406 248.06 170.58 245.808 170.58C243.555 170.58 241.729 172.406 241.729 174.66C241.729 176.913 243.555 178.74 245.808 178.74Z" fill="#F9AE2B"/>
<path d="M199.939 203.769C201.219 203.769 202.257 202.731 202.257 201.451C202.257 200.17 201.219 199.132 199.939 199.132C198.659 199.132 197.621 200.17 197.621 201.451C197.621 202.731 198.659 203.769 199.939 203.769Z" fill="#B9D4DB"/>
<path d="M275.927 139.931C277.207 139.931 278.245 138.893 278.245 137.613C278.245 136.332 277.207 135.294 275.927 135.294C274.647 135.294 273.609 136.332 273.609 137.613C273.609 138.893 274.647 139.931 275.927 139.931Z" fill="#B9D4DB"/>
<path d="M274.52 187.287C273.113 190.273 271.388 193.099 269.376 195.716C267.294 198.316 264.958 200.703 262.402 202.839C259.792 204.941 256.985 206.785 254.02 208.345C248.021 211.425 241.435 213.191 234.7 213.525C233.021 213.541 231.346 213.603 229.673 213.501C228.002 213.407 226.338 213.221 224.688 212.944C218.117 211.889 211.872 209.347 206.431 205.513C212.289 208.248 218.563 209.986 224.993 210.654C231.327 211.273 237.721 210.748 243.87 209.107C246.929 208.274 249.911 207.18 252.783 205.838C255.645 204.449 258.393 202.836 261.001 201.014C263.588 199.122 266.025 197.032 268.289 194.763C270.537 192.419 272.619 189.921 274.52 187.287Z" fill="#B9D4DB"/>
<path d="M182.638 172.341C180.316 163.794 180.502 154.76 183.172 146.315C184.495 142.061 186.396 138.01 188.824 134.276C190.039 132.407 191.384 130.625 192.847 128.944C194.298 127.25 195.861 125.656 197.526 124.171C199.202 122.7 200.969 121.335 202.816 120.084C203.762 119.496 204.675 118.852 205.656 118.32L207.108 117.492L208.602 116.743C209.591 116.231 210.634 115.829 211.649 115.376C212.695 114.994 213.718 114.553 214.785 114.234C216.893 113.529 219.049 112.978 221.237 112.586C225.596 111.816 230.04 111.643 234.446 112.072C238.805 112.517 243.078 113.591 247.13 115.261C242.954 114.19 238.668 113.607 234.358 113.523C230.102 113.46 225.853 113.905 221.703 114.849C217.589 115.818 213.612 117.295 209.863 119.247C207.993 120.215 206.182 121.294 204.44 122.477C202.712 123.678 201.058 124.983 199.488 126.384C193.136 131.996 188.278 139.099 185.351 147.054C182.421 155.141 181.49 163.817 182.638 172.341Z" fill="#B9D4DB"/>
<path d="M150.404 206.138V223.283C150.404 238.174 151.306 239.302 167.319 240.88V247.198H114.543V240.88C131.458 239.302 132.586 237.948 132.586 223.057V206.138H73.043V199.369C94.4695 168.912 117.7 135.974 140.255 104.614H150.404V195.308H172.507V206.138L150.404 206.138ZM132.586 128.303C118.377 149.059 102.589 172.07 87.0267 195.308H132.586V128.303Z" fill="#196C67"/>
<path d="M373.236 206.138V223.283C373.236 238.174 374.139 239.302 390.152 240.88V247.198H337.376V240.88C354.291 239.302 355.419 237.948 355.419 223.057V206.138H295.876V199.369C317.302 168.912 340.533 135.974 363.088 104.614H373.236V195.308H395.34V206.138L373.236 206.138ZM355.419 128.303C341.21 149.059 325.421 172.07 309.86 195.308H355.419V128.303Z" fill="#196C67"/>
<path d="M408.762 66.3895C408.76 72.8556 406.191 79.0562 401.621 83.6295C397.051 88.2028 390.854 90.7747 384.389 90.7805H293.314C288.677 90.7809 284.204 89.0667 280.755 85.9677C277.305 82.8686 275.123 78.6034 274.627 73.9921C274.132 69.3809 275.358 64.7491 278.07 60.9874C280.781 57.2256 284.788 54.5995 289.318 53.6139C289.681 48.1265 292.114 42.9817 296.125 39.2208C300.136 35.4598 305.426 33.3635 310.923 33.3561C313.15 33.3563 315.362 33.7098 317.477 34.4035C320.687 28.1939 325.72 23.1165 331.901 19.8543C338.082 16.5921 345.113 15.3015 352.049 16.1562C358.985 17.0109 365.493 19.9699 370.697 24.6351C375.901 29.3003 379.553 35.4479 381.159 42.251C384.601 41.7858 388.102 42.0625 391.428 43.0627C394.754 44.0628 397.827 45.7631 400.441 48.0495C403.056 50.3358 405.151 53.1553 406.586 56.3186C408.022 59.4819 408.764 62.9157 408.762 66.3895Z" fill="#F9AE2B"/>
<path d="M408.635 257.106C408.633 262.015 406.683 266.722 403.213 270.195C399.743 273.667 395.038 275.619 390.13 275.624H320.984C317.464 275.624 314.068 274.323 311.45 271.97C308.831 269.617 307.174 266.379 306.798 262.878C306.421 259.377 307.352 255.86 309.411 253.004C311.47 250.148 314.512 248.155 317.951 247.406C318.227 243.24 320.074 239.334 323.119 236.479C326.164 233.623 330.18 232.032 334.354 232.026C336.044 232.026 337.724 232.295 339.33 232.821C341.767 228.107 345.588 224.252 350.281 221.776C354.973 219.299 360.311 218.319 365.577 218.968C370.843 219.617 375.784 221.863 379.735 225.405C383.686 228.947 386.458 233.614 387.678 238.779C390.291 238.426 392.949 238.636 395.474 239.396C397.999 240.155 400.332 241.446 402.317 243.182C404.302 244.918 405.893 247.058 406.983 249.46C408.072 251.861 408.636 254.468 408.635 257.106Z" fill="#F9AE2B"/>
<path d="M88.2168 48.3506H112.118" stroke="#B9D4DB" stroke-width="3" stroke-miterlimit="10" stroke-linecap="round"/>
<path d="M88.2168 55.2417H112.118" stroke="#B9D4DB" stroke-width="3" stroke-miterlimit="10" stroke-linecap="round"/>
<path d="M88.2168 62.1328H112.118" stroke="#B9D4DB" stroke-width="3" stroke-miterlimit="10" stroke-linecap="round"/>
<path d="M202.439 252.578H226.341" stroke="#B9D4DB" stroke-width="3" stroke-miterlimit="10" stroke-linecap="round"/>
<path d="M202.439 259.469H226.341" stroke="#B9D4DB" stroke-width="3" stroke-miterlimit="10" stroke-linecap="round"/>
<path d="M202.439 266.36H226.341" stroke="#B9D4DB" stroke-width="3" stroke-miterlimit="10" stroke-linecap="round"/>
<path d="M396.684 161.337H420.585" stroke="#B9D4DB" stroke-width="3" stroke-miterlimit="10" stroke-linecap="round"/>
<path d="M396.684 168.229H420.585" stroke="#B9D4DB" stroke-width="3" stroke-miterlimit="10" stroke-linecap="round"/>
<path d="M396.684 175.12H420.585" stroke="#B9D4DB" stroke-width="3" stroke-miterlimit="10" stroke-linecap="round"/>
<path d="M59.8703 267.972C66.5836 267.972 72.0257 262.529 72.0257 255.813C72.0257 249.098 66.5836 243.654 59.8703 243.654C53.157 243.654 47.7148 249.098 47.7148 255.813C47.7148 262.529 53.157 267.972 59.8703 267.972Z" fill="#B9D4DB"/>
<path d="M75.1675 242.636C78.6643 242.636 81.4991 239.8 81.4991 236.302C81.4991 232.804 78.6643 229.969 75.1675 229.969C71.6707 229.969 68.8359 232.804 68.8359 236.302C68.8359 239.8 71.6707 242.636 75.1675 242.636Z" fill="#B9D4DB"/>
<path d="M106.638 270.108C109.665 270.108 112.118 267.654 112.118 264.627C112.118 261.599 109.665 259.145 106.638 259.145C103.612 259.145 101.158 261.599 101.158 264.627C101.158 267.654 103.612 270.108 106.638 270.108Z" fill="#B9D4DB"/>
<path d="M93.911 252.032C95.9281 252.032 97.5632 250.396 97.5632 248.378C97.5632 246.361 95.9281 244.725 93.911 244.725C91.8939 244.725 90.2588 246.361 90.2588 248.378C90.2588 250.396 91.8939 252.032 93.911 252.032Z" fill="#B9D4DB"/>
<path d="M85.3138 275.622C90.1492 275.622 94.069 271.701 94.069 266.864C94.069 262.027 90.1492 258.106 85.3138 258.106C80.4784 258.106 76.5586 262.027 76.5586 266.864C76.5586 271.701 80.4784 275.622 85.3138 275.622Z" fill="#B9D4DB"/>
<path d="M228.105 92.3082C234.818 92.3082 240.26 86.8645 240.26 80.1492C240.26 73.434 234.818 67.9902 228.105 67.9902C221.391 67.9902 215.949 73.434 215.949 80.1492C215.949 86.8645 221.391 92.3082 228.105 92.3082Z" fill="#B9D4DB"/>
<path d="M203.993 97.7898C207.019 97.7898 209.473 95.3356 209.473 92.3082C209.473 89.2808 207.019 86.8267 203.993 86.8267C200.966 86.8267 198.513 89.2808 198.513 92.3082C198.513 95.3356 200.966 97.7898 203.993 97.7898Z" fill="#B9D4DB"/>
<path d="M197.275 80.1488C202.11 80.1488 206.03 76.2279 206.03 71.3911C206.03 66.5543 202.11 62.6333 197.275 62.6333C192.439 62.6333 188.52 66.5543 188.52 71.3911C188.52 76.2279 192.439 80.1488 197.275 80.1488Z" fill="#B9D4DB"/>
</svg>
