<svg width="514" height="405" viewBox="0 0 514 405" fill="none" xmlns="http://www.w3.org/2000/svg">
<path d="M242.626 290.91C318.45 290.91 379.918 229.423 379.918 153.576C379.918 77.7279 318.45 16.2412 242.626 16.2412C166.802 16.2412 105.335 77.7279 105.335 153.576C105.335 229.423 166.802 290.91 242.626 290.91Z" fill="#DBE8EC"/>
<path d="M477.549 168.234V153.845C477.549 151.101 476.459 148.469 474.519 146.529C472.58 144.589 469.949 143.499 467.206 143.499H430.699C429.341 143.499 427.996 143.231 426.741 142.711C425.486 142.191 424.346 141.429 423.386 140.468C422.425 139.508 421.664 138.367 421.144 137.112C420.624 135.857 420.356 134.511 420.356 133.153V118.763C420.356 117.404 420.624 116.059 421.144 114.804C421.664 113.549 422.425 112.408 423.386 111.447C424.346 110.487 425.486 109.725 426.741 109.205C427.996 108.685 429.341 108.417 430.699 108.417H431.852C434.595 108.417 437.226 107.327 439.165 105.387C441.105 103.446 442.195 100.815 442.195 98.071V83.6815C442.195 80.9376 441.105 78.306 439.165 76.3657C437.226 74.4255 434.595 73.3354 431.852 73.3354H106.128C103.385 73.3354 100.755 74.4255 98.815 76.3657C96.8753 78.306 95.7856 80.9376 95.7856 83.6815V98.071C95.7856 100.815 96.8753 103.446 98.815 105.387C100.755 107.327 103.385 108.417 106.128 108.417C107.487 108.417 108.832 108.685 110.086 109.205C111.341 109.725 112.482 110.487 113.442 111.447C114.402 112.408 115.164 113.549 115.684 114.804C116.204 116.059 116.471 117.404 116.471 118.763V133.153C116.471 134.511 116.204 135.857 115.684 137.112C115.164 138.367 114.402 139.508 113.442 140.468C112.482 141.429 111.341 142.191 110.086 142.711C108.832 143.231 107.487 143.499 106.128 143.499H66.1319C63.3888 143.499 60.758 144.589 58.8184 146.529C56.8787 148.469 55.789 151.101 55.789 153.845V168.234C55.789 170.978 56.8787 173.61 58.8184 175.55C60.758 177.49 63.3888 178.58 66.1319 178.58H81.8259C83.1842 178.58 84.5291 178.848 85.784 179.368C87.0388 179.888 88.179 180.65 89.1394 181.611C90.0998 182.571 90.8617 183.712 91.3815 184.967C91.9012 186.222 92.1688 187.568 92.1687 188.926V203.316C92.1688 204.674 91.9012 206.02 91.3815 207.275C90.8617 208.53 90.0998 209.671 89.1394 210.632C88.179 211.592 87.0388 212.354 85.784 212.874C84.5291 213.394 83.1842 213.662 81.8259 213.662H81.788C79.0449 213.662 76.4142 214.752 74.4745 216.692C72.5349 218.632 71.4452 221.264 71.4452 224.008V238.397C71.4452 239.756 71.7127 241.101 72.2325 242.357C72.7523 243.612 73.5141 244.752 74.4745 245.713C75.435 246.674 76.5751 247.436 77.83 247.956C79.0848 248.476 80.4298 248.743 81.788 248.743H84.0586C86.8017 248.743 89.4325 249.833 91.3721 251.774C93.3118 253.714 94.4015 256.346 94.4015 259.089V273.479C94.4015 276.223 93.3118 278.855 91.3721 280.795C89.4325 282.735 86.8017 283.825 84.0586 283.825H46.794C44.0509 283.825 41.4202 284.915 39.4805 286.855C37.5409 288.796 36.4512 291.427 36.4512 294.171V308.561C36.4512 311.305 37.5409 313.936 39.4805 315.876C41.4202 317.817 44.0509 318.907 46.794 318.907H437.405C440.148 318.907 442.779 317.817 444.718 315.876C446.658 313.936 447.748 311.305 447.748 308.561V294.171C447.748 291.427 446.658 288.796 444.718 286.855C442.779 284.915 440.148 283.825 437.405 283.825H428.437C425.694 283.825 423.063 282.735 421.123 280.795C419.184 278.855 418.094 276.223 418.094 273.479V259.089C418.094 256.346 419.184 253.714 421.123 251.774C423.063 249.833 425.694 248.743 428.437 248.743H449.582C450.94 248.743 452.285 248.476 453.54 247.956C454.795 247.436 455.935 246.674 456.896 245.713C457.856 244.752 458.618 243.612 459.138 242.357C459.657 241.101 459.925 239.756 459.925 238.397V224.008C459.925 221.264 458.835 218.632 456.896 216.692C454.956 214.752 452.325 213.662 449.582 213.662H443.168C441.809 213.662 440.464 213.394 439.21 212.874C437.955 212.354 436.815 211.592 435.854 210.632C434.894 209.671 434.132 208.53 433.612 207.275C433.092 206.02 432.825 204.674 432.825 203.316V188.926C432.825 187.568 433.092 186.222 433.612 184.967C434.132 183.712 434.894 182.571 435.854 181.611C436.815 180.65 437.955 179.888 439.21 179.368C440.464 178.848 441.809 178.58 443.168 178.58H467.206C469.949 178.58 472.58 177.49 474.519 175.55C476.459 173.61 477.549 170.978 477.549 168.234Z" fill="#DBE8EC"/>
<path d="M149.214 147.509C149.292 150.731 149.281 153.949 149.238 157.167C149.225 158.776 149.179 160.384 149.149 161.992L149.01 166.816L148.821 171.638C148.741 173.245 148.678 174.852 148.581 176.458C148.405 179.671 148.197 182.883 147.898 186.092C147.819 182.87 147.83 179.652 147.874 176.434C147.886 174.825 147.933 173.217 147.962 171.609L148.103 166.785L148.293 161.963C148.372 160.356 148.436 158.749 148.533 157.143C148.709 153.93 148.917 150.718 149.214 147.509Z" fill="#196C67"/>
<path d="M184.086 159.728C182.604 162.438 181.046 165.101 179.461 167.747C178.676 169.074 177.863 170.384 177.064 171.702L174.623 175.631L172.141 179.534C171.299 180.825 170.472 182.126 169.616 183.409C167.918 185.984 166.194 188.541 164.393 191.051C165.874 188.34 167.431 185.677 169.016 183.032C169.801 181.704 170.615 180.395 171.414 179.076L173.855 175.148L176.338 171.246C177.18 169.954 178.008 168.654 178.864 167.371C180.562 164.796 182.286 162.238 184.086 159.728Z" fill="#196C67"/>
<path d="M167.535 151.503C166.765 154.647 165.91 157.765 165.025 160.874C164.59 162.43 164.124 163.978 163.673 165.53L162.274 170.17L160.827 174.797C160.328 176.334 159.846 177.876 159.331 179.408C158.319 182.478 157.275 185.538 156.146 188.571C156.914 185.427 157.769 182.309 158.654 179.2C159.089 177.643 159.555 176.096 160.006 174.544L161.407 169.904L162.854 165.278C163.352 163.74 163.836 162.199 164.35 160.666C165.363 157.597 166.406 154.537 167.535 151.503Z" fill="#196C67"/>
<path d="M169.593 177.66L151.248 172.145C149.575 171.642 147.811 172.591 147.308 174.265L145.008 181.919C144.506 183.593 145.454 185.357 147.127 185.86L165.472 191.375C167.145 191.878 168.909 190.929 169.411 189.256L171.711 181.601C172.214 179.928 171.265 178.163 169.593 177.66Z" fill="#319791"/>
<path d="M149.271 171.551C149.047 172.73 148.766 173.891 148.466 175.047C148.168 176.204 147.837 177.351 147.5 178.495C147.151 179.637 146.795 180.776 146.406 181.905C146.02 183.035 145.614 184.159 145.149 185.266C145.372 184.087 145.653 182.925 145.954 181.769C146.251 180.612 146.582 179.466 146.92 178.321C147.27 177.18 147.626 176.041 148.015 174.912C148.401 173.782 148.807 172.658 149.271 171.551Z" fill="#196C67"/>
<path d="M152.02 172.377C151.796 173.556 151.515 174.718 151.214 175.873C150.917 177.03 150.586 178.177 150.249 179.322C149.9 180.463 149.544 181.602 149.155 182.731C148.769 183.861 148.362 184.985 147.898 186.092C148.121 184.913 148.402 183.751 148.703 182.595C149 181.438 149.331 180.292 149.67 179.147C150.019 178.006 150.374 176.867 150.764 175.738C151.15 174.608 151.556 173.484 152.02 172.377Z" fill="#196C67"/>
<path d="M154.769 173.203C154.545 174.382 154.264 175.544 153.964 176.7C153.666 177.856 153.335 179.003 152.998 180.148C152.649 181.289 152.293 182.428 151.904 183.557C151.518 184.688 151.112 185.812 150.647 186.918C150.87 185.739 151.151 184.577 151.452 183.422C151.749 182.265 152.08 181.118 152.419 179.974C152.768 178.832 153.124 177.693 153.513 176.564C153.899 175.434 154.305 174.31 154.769 173.203Z" fill="#196C67"/>
<path d="M157.518 174.03C157.294 175.209 157.013 176.37 156.712 177.526C156.415 178.683 156.084 179.83 155.747 180.974C155.398 182.116 155.042 183.255 154.653 184.384C154.267 185.514 153.86 186.638 153.396 187.745C153.619 186.566 153.9 185.404 154.201 184.248C154.498 183.091 154.829 181.945 155.168 180.8C155.517 179.659 155.872 178.52 156.262 177.391C156.648 176.261 157.054 175.137 157.518 174.03Z" fill="#196C67"/>
<path d="M160.267 174.856C160.043 176.035 159.762 177.197 159.462 178.353C159.164 179.51 158.833 180.656 158.496 181.801C158.147 182.942 157.791 184.082 157.402 185.211C157.016 186.341 156.61 187.465 156.146 188.571C156.368 187.392 156.649 186.23 156.95 185.075C157.247 183.918 157.578 182.771 157.917 181.627C158.266 180.486 158.622 179.347 159.011 178.217C159.397 177.087 159.803 175.963 160.267 174.856Z" fill="#196C67"/>
<path d="M163.016 175.683C162.792 176.862 162.511 178.023 162.211 179.179C161.913 180.336 161.582 181.483 161.245 182.627C160.896 183.769 160.54 184.908 160.151 186.037C159.765 187.167 159.358 188.291 158.895 189.398C159.117 188.218 159.398 187.057 159.699 185.901C159.996 184.744 160.327 183.598 160.665 182.453C161.015 181.312 161.37 180.173 161.76 179.044C162.146 177.914 162.552 176.79 163.016 175.683Z" fill="#196C67"/>
<path d="M165.765 176.509C165.541 177.688 165.26 178.85 164.96 180.006C164.663 181.163 164.331 182.309 163.994 183.454C163.645 184.595 163.289 185.734 162.9 186.863C162.514 187.994 162.108 189.118 161.644 190.224C161.866 189.045 162.147 187.883 162.448 186.728C162.745 185.571 163.076 184.424 163.415 183.28C163.764 182.139 164.12 180.999 164.509 179.87C164.895 178.74 165.301 177.616 165.765 176.509Z" fill="#196C67"/>
<path d="M168.514 177.336C168.29 178.515 168.009 179.677 167.709 180.832C167.411 181.989 167.08 183.136 166.743 184.28C166.394 185.422 166.038 186.561 165.649 187.69C165.263 188.82 164.857 189.944 164.393 191.051C164.615 189.872 164.896 188.71 165.197 187.554C165.494 186.397 165.825 185.251 166.164 184.106C166.513 182.965 166.869 181.826 167.258 180.697C167.644 179.567 168.05 178.443 168.514 177.336Z" fill="#196C67"/>
<path d="M171.263 178.162C171.039 179.341 170.759 180.503 170.458 181.659C170.16 182.815 169.829 183.962 169.492 185.107C169.143 186.248 168.787 187.387 168.398 188.516C168.012 189.646 167.606 190.77 167.142 191.877C167.364 190.698 167.645 189.536 167.946 188.38C168.243 187.224 168.574 186.077 168.913 184.933C169.262 183.791 169.618 182.652 170.007 181.523C170.393 180.393 170.799 179.269 171.263 178.162Z" fill="#196C67"/>
<path d="M147.675 172.982C149.744 173.482 151.801 174.019 153.848 174.593C155.897 175.158 157.935 175.758 159.972 176.364C162.006 176.981 164.037 177.605 166.058 178.263C168.082 178.912 170.094 179.599 172.095 180.324C170.026 179.825 167.969 179.289 165.922 178.715C163.873 178.149 161.835 177.55 159.798 176.943C157.765 176.325 155.733 175.701 153.712 175.043C151.689 174.393 149.676 173.706 147.675 172.982Z" fill="#196C67"/>
<path d="M146.873 175.648C148.942 176.148 150.999 176.685 153.046 177.259C155.095 177.824 157.134 178.424 159.17 179.03C161.204 179.647 163.235 180.271 165.256 180.929C167.28 181.578 169.292 182.265 171.294 182.99C169.225 182.491 167.167 181.955 165.12 181.381C163.072 180.815 161.033 180.216 158.996 179.609C156.963 178.991 154.932 178.367 152.91 177.709C150.887 177.059 148.874 176.372 146.873 175.648Z" fill="#196C67"/>
<path d="M146.072 178.314C148.141 178.814 150.199 179.351 152.245 179.925C154.294 180.49 156.333 181.09 158.37 181.696C160.403 182.313 162.434 182.937 164.455 183.595C166.479 184.244 168.492 184.932 170.493 185.656C168.424 185.157 166.366 184.621 164.32 184.047C162.271 183.481 160.232 182.882 158.195 182.275C156.162 181.657 154.131 181.033 152.11 180.375C150.086 179.725 148.074 179.038 146.072 178.314Z" fill="#196C67"/>
<path d="M145.271 180.98C147.34 181.48 149.398 182.017 151.444 182.591C153.493 183.156 155.532 183.756 157.569 184.362C159.602 184.979 161.634 185.603 163.655 186.261C165.678 186.91 167.691 187.597 169.692 188.322C167.623 187.823 165.565 187.287 163.519 186.713C161.47 186.147 159.431 185.548 157.395 184.941C155.361 184.323 153.33 183.699 151.309 183.041C149.285 182.391 147.273 181.704 145.271 180.98Z" fill="#196C67"/>
<path d="M144.471 183.646C146.539 184.146 148.597 184.683 150.643 185.256C152.692 185.822 154.731 186.421 156.768 187.027C158.801 187.644 160.833 188.268 162.854 188.926C164.878 189.576 166.89 190.263 168.891 190.988C166.822 190.489 164.765 189.952 162.718 189.378C160.669 188.813 158.631 188.213 156.594 187.606C154.561 186.989 152.529 186.365 150.508 185.707C148.485 185.057 146.472 184.37 144.471 183.646Z" fill="#196C67"/>
<path d="M210.578 122.928C215.356 107.027 203.445 89.3911 187.549 84.6119C171.652 79.8328 151.996 87.9783 147.218 103.88C145.373 110.02 148.809 159.409 148.809 159.409L178.647 168.379C178.647 168.379 208.733 129.068 210.578 122.928Z" fill="#40C2BB"/>
<path d="M187.548 84.6118C185.106 83.884 182.587 83.4465 180.043 83.3081C192.217 90.401 200.139 105.108 196.093 118.574C194.248 124.714 164.162 164.025 164.162 164.025L178.646 168.379C178.646 168.379 208.732 129.068 210.577 122.928C215.355 107.027 203.444 89.3909 187.548 84.6118Z" fill="#319791"/>
<path d="M194.528 87.6628C192.33 86.3753 189.987 85.3513 187.549 84.6119C171.652 79.8328 151.996 87.9783 147.218 103.88C145.373 110.02 148.809 159.409 148.809 159.409L163.293 163.763C163.293 163.763 159.858 114.375 161.702 108.234C165.748 94.7692 180.462 86.8668 194.528 87.6628Z" fill="#319791"/>
<path d="M187.549 84.6119C186.582 84.3211 185.602 84.0781 184.609 83.8828C199.039 89.7897 209.271 106.252 204.784 121.186C202.939 127.327 172.854 166.638 172.854 166.638L178.647 168.379C178.647 168.379 208.733 129.068 210.578 122.928C215.356 107.027 203.445 89.391 187.549 84.6119Z" fill="#196C67"/>
<path d="M190.403 85.6247C189.468 85.242 188.517 84.9044 187.549 84.6119C171.652 79.8328 151.996 87.9783 147.218 103.88C145.373 110.02 148.809 159.409 148.809 159.409L154.603 161.151C154.603 161.151 151.167 111.762 153.012 105.622C157.499 90.6877 175.109 82.5955 190.403 85.6247Z" fill="#196C67"/>
<path d="M328.845 108.481C328.841 116.997 325.458 125.164 319.439 131.188C313.42 137.211 305.257 140.599 296.743 140.606H176.789C170.682 140.607 164.791 138.349 160.247 134.267C155.704 130.185 152.83 124.568 152.177 118.494C151.524 112.421 153.139 106.32 156.711 101.365C160.283 96.4107 165.559 92.9518 171.527 91.6537C172.004 84.4262 175.208 77.6499 180.491 72.6963C185.774 67.7427 192.741 64.9817 199.982 64.9719C202.914 64.9721 205.828 65.4377 208.614 66.3514C212.841 58.1728 219.471 51.4852 227.612 47.1885C235.752 42.8918 245.013 41.192 254.148 42.3177C263.283 43.4434 271.854 47.3407 278.709 53.4853C285.564 59.6299 290.373 67.727 292.489 76.6874C312.005 73.9919 328.845 89.3862 328.845 108.481Z" fill="#F9AE2B"/>
<path d="M220.922 272.479C221.126 280.901 221.095 289.315 220.983 297.726C220.949 301.933 220.83 306.136 220.751 310.341L220.386 322.951L219.894 335.557C219.684 339.757 219.52 343.959 219.266 348.158C218.806 356.558 218.261 364.954 217.481 373.343C217.274 364.921 217.303 356.507 217.416 348.095C217.449 343.889 217.571 339.685 217.649 335.48L218.017 322.87L218.512 310.265C218.72 306.064 218.887 301.862 219.14 297.663C219.601 289.264 220.144 280.867 220.922 272.479Z" fill="#196C67"/>
<path d="M312.084 304.42C308.209 311.505 304.136 318.466 299.993 325.383C297.941 328.853 295.816 332.277 293.726 335.724L287.346 345.994L280.857 356.197C278.656 359.574 276.493 362.974 274.255 366.327C269.818 373.059 265.309 379.745 260.601 386.306C264.473 379.219 268.545 372.258 272.688 365.341C274.739 361.871 276.867 358.448 278.956 355.001L285.339 344.732L291.829 334.531C294.029 331.153 296.195 327.754 298.432 324.4C302.87 317.669 307.378 310.982 312.084 304.42Z" fill="#196C67"/>
<path d="M268.815 282.918C266.803 291.138 264.568 299.289 262.253 307.416C261.117 311.486 259.899 315.531 258.721 319.588L255.061 331.72L251.28 343.815C249.976 347.833 248.716 351.865 247.37 355.87C244.722 363.894 241.994 371.894 239.041 379.824C241.05 371.604 243.285 363.453 245.6 355.326C246.735 351.256 247.955 347.212 249.133 343.155L252.795 331.023L256.58 318.929C257.882 314.91 259.145 310.88 260.49 306.874C263.138 298.85 265.865 290.85 268.815 282.918Z" fill="#196C67"/>
<path d="M279.084 352.77L221.347 335.412C219.674 334.909 217.91 335.858 217.407 337.531L208.455 367.325C207.952 368.999 208.901 370.763 210.574 371.266L268.311 388.624C269.984 389.127 271.748 388.178 272.251 386.505L281.202 356.711C281.705 355.037 280.757 353.273 279.084 352.77Z" fill="#319791"/>
<path d="M221.067 335.328C220.482 338.409 219.748 341.447 218.962 344.468C218.185 347.492 217.32 350.49 216.437 353.482C215.526 356.466 214.596 359.444 213.578 362.396C212.57 365.35 211.507 368.289 210.294 371.182C210.877 368.099 211.609 365.062 212.396 362.041C213.174 359.016 214.039 356.019 214.923 353.027C215.836 350.044 216.766 347.066 217.785 344.114C218.794 341.16 219.856 338.221 221.067 335.328Z" fill="#196C67"/>
<path d="M228.254 337.488C227.67 340.57 226.936 343.607 226.149 346.629C225.373 349.653 224.507 352.65 223.625 355.643C222.714 358.627 221.784 361.605 220.765 364.557C219.757 367.511 218.694 370.449 217.481 373.342C218.064 370.26 218.797 367.222 219.583 364.201C220.361 361.177 221.226 358.179 222.111 355.188C223.024 352.204 223.954 349.226 224.972 346.275C225.981 343.32 227.043 340.381 228.254 337.488Z" fill="#196C67"/>
<path d="M235.441 339.648C234.856 342.731 234.122 345.768 233.336 348.789C232.559 351.813 231.694 354.811 230.811 357.803C229.9 360.787 228.97 363.766 227.952 366.717C226.944 369.671 225.881 372.61 224.668 375.503C225.251 372.42 225.983 369.383 226.77 366.362C227.548 363.338 228.413 360.34 229.298 357.348C230.21 354.365 231.14 351.387 232.159 348.435C233.168 345.481 234.23 342.542 235.441 339.648Z" fill="#196C67"/>
<path d="M242.627 341.809C242.043 344.891 241.309 347.928 240.522 350.95C239.746 353.974 238.88 356.972 237.998 359.964C237.087 362.948 236.157 365.926 235.138 368.878C234.13 371.832 233.067 374.771 231.854 377.664C232.437 374.581 233.17 371.544 233.957 368.522C234.734 365.498 235.599 362.501 236.484 359.509C237.397 356.526 238.327 353.547 239.345 350.596C240.354 347.641 241.416 344.703 242.627 341.809Z" fill="#196C67"/>
<path d="M249.814 343.97C249.23 347.052 248.495 350.089 247.709 353.11C246.932 356.135 246.067 359.132 245.184 362.124C244.273 365.109 243.344 368.087 242.325 371.038C241.316 373.993 240.254 376.931 239.041 379.824C239.624 376.742 240.357 373.704 241.143 370.683C241.921 367.659 242.786 364.661 243.671 361.669C244.583 358.686 245.514 355.708 246.532 352.756C247.541 349.802 248.602 346.863 249.814 343.97Z" fill="#196C67"/>
<path d="M257 346.13C256.416 349.213 255.682 352.25 254.895 355.271C254.119 358.295 253.253 361.293 252.371 364.285C251.459 367.269 250.53 370.247 249.511 373.199C248.503 376.153 247.44 379.092 246.228 381.985C246.81 378.902 247.543 375.865 248.33 372.844C249.107 369.819 249.972 366.822 250.857 363.83C251.769 360.847 252.7 357.869 253.718 354.917C254.727 351.963 255.789 349.024 257 346.13Z" fill="#196C67"/>
<path d="M264.187 348.291C263.603 351.373 262.869 354.41 262.082 357.432C261.306 360.456 260.44 363.454 259.557 366.446C258.646 369.43 257.716 372.408 256.698 375.359C255.689 378.314 254.627 381.252 253.414 384.146C253.997 381.063 254.73 378.026 255.516 375.004C256.294 371.98 257.159 368.983 258.044 365.991C258.956 363.007 259.886 360.029 260.905 357.078C261.914 354.123 262.976 351.185 264.187 348.291Z" fill="#196C67"/>
<path d="M271.373 350.452C270.789 353.534 270.055 356.571 269.269 359.592C268.492 362.617 267.626 365.614 266.744 368.606C265.832 371.59 264.903 374.568 263.885 377.52C262.876 380.475 261.813 383.413 260.601 386.306C261.183 383.224 261.916 380.186 262.703 377.165C263.48 374.141 264.346 371.143 265.23 368.151C266.143 365.168 267.073 362.19 268.091 359.238C269.1 356.284 270.162 353.345 271.373 350.452Z" fill="#196C67"/>
<path d="M278.56 352.612C277.975 355.694 277.242 358.731 276.455 361.753C275.678 364.777 274.813 367.774 273.93 370.767C273.019 373.751 272.089 376.729 271.071 379.681C270.063 382.635 269 385.573 267.787 388.467C268.37 385.384 269.103 382.346 269.889 379.325C270.667 376.301 271.532 373.304 272.417 370.312C273.329 367.329 274.259 364.35 275.278 361.399C276.287 358.445 277.349 355.506 278.56 352.612Z" fill="#196C67"/>
<path d="M216.895 339.071C222.303 340.378 227.682 341.781 233.032 343.281C238.388 344.759 243.718 346.326 249.043 347.911C254.359 349.523 259.669 351.155 264.953 352.875C270.243 354.573 275.504 356.37 280.736 358.264C275.327 356.96 269.948 355.557 264.598 354.057C259.242 352.578 253.912 351.011 248.588 349.425C243.272 347.81 237.962 346.179 232.678 344.459C227.388 342.759 222.127 340.964 216.895 339.071Z" fill="#196C67"/>
<path d="M214.801 346.041C220.209 347.347 225.588 348.75 230.938 350.25C236.294 351.729 241.624 353.296 246.949 354.88C252.265 356.493 257.575 358.124 262.859 359.844C268.15 361.543 273.41 363.339 278.642 365.234C273.233 363.929 267.854 362.526 262.504 361.027C257.148 359.548 251.818 357.98 246.494 356.394C241.178 354.78 235.868 353.148 230.584 351.428C225.294 349.729 220.033 347.933 214.801 346.041Z" fill="#196C67"/>
<path d="M212.707 353.01C218.115 354.317 223.494 355.72 228.844 357.219C234.201 358.698 239.53 360.265 244.855 361.85C250.171 363.462 255.482 365.094 260.765 366.814C266.056 368.512 271.317 370.309 276.548 372.203C271.139 370.898 265.76 369.496 260.41 367.996C255.054 366.517 249.724 364.95 244.4 363.364C239.085 361.749 233.774 360.117 228.49 358.397C223.2 356.698 217.939 354.902 212.707 353.01Z" fill="#196C67"/>
<path d="M210.613 359.979C216.021 361.286 221.4 362.689 226.75 364.189C232.107 365.667 237.436 367.235 242.761 368.819C248.077 370.431 253.388 372.063 258.671 373.783C263.962 375.482 269.223 377.278 274.454 379.172C269.046 377.868 263.666 376.465 258.316 374.966C252.96 373.486 247.63 371.919 242.306 370.333C236.991 368.719 231.68 367.087 226.397 365.366C221.106 363.667 215.845 361.872 210.613 359.979Z" fill="#196C67"/>
<path d="M208.52 366.949C213.927 368.255 219.307 369.658 224.657 371.158C230.013 372.637 235.343 374.204 240.667 375.788C245.983 377.401 251.294 379.033 256.578 380.752C261.868 382.451 267.129 384.247 272.36 386.142C266.952 384.837 261.573 383.435 256.222 381.935C250.866 380.456 245.537 378.889 240.212 377.302C234.897 375.688 229.587 374.056 224.303 372.336C219.013 370.637 213.752 368.841 208.52 366.949Z" fill="#196C67"/>
<path d="M381.339 208.217C393.829 166.647 362.693 120.542 321.135 108.049C279.578 95.5548 228.191 116.849 215.701 158.419C210.879 174.471 219.861 303.586 219.861 303.586L297.864 327.038C297.864 327.038 376.516 224.269 381.339 208.217Z" fill="#40C2BB"/>
<path d="M321.135 108.048C314.752 106.146 308.167 105.002 301.516 104.64C333.343 123.183 354.05 161.632 343.474 196.833C338.651 212.885 259.999 315.653 259.999 315.653L297.864 327.037C297.864 327.037 376.516 224.269 381.339 208.216C393.829 166.646 362.692 120.542 321.135 108.048Z" fill="#319791"/>
<path d="M339.382 116.024C333.634 112.658 327.509 109.981 321.135 108.049C279.578 95.5548 228.191 116.849 215.701 158.419C210.879 174.471 219.861 303.586 219.861 303.586L257.726 314.97C257.726 314.97 248.744 185.855 253.567 169.803C264.143 134.602 302.61 113.943 339.382 116.024Z" fill="#319791"/>
<path d="M321.135 108.049C318.606 107.288 316.045 106.653 313.45 106.143C351.173 121.585 377.923 164.622 366.193 203.663C361.37 219.715 282.718 322.484 282.718 322.484L297.864 327.038C297.864 327.038 376.516 224.269 381.339 208.217C393.829 166.647 362.692 120.542 321.135 108.049Z" fill="#196C67"/>
<path d="M328.597 110.696C326.153 109.696 323.666 108.813 321.135 108.049C279.578 95.5548 228.191 116.849 215.701 158.419C210.879 174.471 219.861 303.586 219.861 303.586L235.007 308.14C235.007 308.14 226.025 179.025 230.848 162.973C242.578 123.932 288.614 102.777 328.597 110.696Z" fill="#196C67"/>
<path d="M454.821 209.966C454.819 214.574 452.989 218.993 449.732 222.252C446.475 225.511 442.059 227.344 437.452 227.348H372.549C369.244 227.348 366.057 226.127 363.599 223.918C361.141 221.71 359.585 218.67 359.232 215.384C358.879 212.098 359.753 208.797 361.685 206.116C363.618 203.435 366.473 201.564 369.702 200.861C369.96 196.951 371.694 193.284 374.552 190.604C377.41 187.924 381.18 186.43 385.098 186.425C386.684 186.425 388.261 186.677 389.768 187.171C392.056 182.746 395.643 179.128 400.047 176.803C404.452 174.478 409.462 173.558 414.405 174.167C419.348 174.776 423.986 176.885 427.694 180.21C431.403 183.534 434.005 187.916 435.15 192.764C437.603 192.432 440.098 192.629 442.468 193.342C444.838 194.055 447.028 195.267 448.891 196.896C450.754 198.525 452.247 200.535 453.27 202.789C454.293 205.043 454.822 207.49 454.821 209.966Z" fill="#F9AE2B"/>
<path d="M209.354 262.067C209.352 266.675 207.522 271.094 204.265 274.353C201.008 277.612 196.592 279.445 191.985 279.449H127.082C123.778 279.449 120.59 278.228 118.132 276.019C115.674 273.811 114.118 270.771 113.765 267.485C113.412 264.199 114.286 260.898 116.218 258.217C118.151 255.536 121.006 253.665 124.235 252.963C124.493 249.052 126.227 245.386 129.085 242.705C131.944 240.025 135.713 238.531 139.631 238.526C141.218 238.526 142.794 238.778 144.302 239.272C146.589 234.847 150.176 231.229 154.58 228.904C158.985 226.579 163.996 225.659 168.938 226.268C173.881 226.878 178.519 228.986 182.228 232.311C185.936 235.636 188.538 240.017 189.683 244.865C192.136 244.533 194.631 244.73 197.001 245.443C199.371 246.156 201.561 247.368 203.424 248.997C205.288 250.626 206.781 252.636 207.803 254.89C208.826 257.144 209.355 259.591 209.354 262.067Z" fill="#F9AE2B"/>
<path d="M99.3041 176.74C105.334 176.74 110.222 171.851 110.222 165.819C110.222 159.787 105.334 154.897 99.3041 154.897C93.2741 154.897 88.3857 159.787 88.3857 165.819C88.3857 171.851 93.2741 176.74 99.3041 176.74Z" fill="#196C67" fill-opacity="0.15"/>
<path d="M109.17 193.221C112.297 193.221 114.832 190.685 114.832 187.558C114.832 184.43 112.297 181.895 109.17 181.895C106.043 181.895 103.509 184.43 103.509 187.558C103.509 190.685 106.043 193.221 109.17 193.221Z" fill="#196C67" fill-opacity="0.15"/>
<path d="M93.8127 210.184C96.9394 210.184 99.4741 207.649 99.4741 204.521C99.4741 201.393 96.9394 198.858 93.8127 198.858C90.6861 198.858 88.1514 201.393 88.1514 204.521C88.1514 207.649 90.6861 210.184 93.8127 210.184Z" fill="#196C67" fill-opacity="0.15"/>
<path d="M81.9012 191.343C86.3679 191.343 89.9888 187.72 89.9888 183.252C89.9888 178.784 86.3679 175.162 81.9012 175.162C77.4345 175.162 73.8135 178.784 73.8135 183.252C73.8135 187.72 77.4345 191.343 81.9012 191.343Z" fill="#196C67" fill-opacity="0.15"/>
<path d="M366.429 95.0496C372.459 95.0496 377.347 90.1597 377.347 84.1278C377.347 78.0959 372.459 73.2061 366.429 73.2061C360.399 73.2061 355.511 78.0959 355.511 84.1278C355.511 90.1597 360.399 95.0496 366.429 95.0496Z" fill="#196C67" fill-opacity="0.15"/>
<path d="M342.587 90.8859C345.714 90.8859 348.249 88.3504 348.249 85.2227C348.249 82.095 345.714 79.5596 342.587 79.5596C339.46 79.5596 336.926 82.095 336.926 85.2227C336.926 88.3504 339.46 90.8859 342.587 90.8859Z" fill="#196C67" fill-opacity="0.15"/>
<path d="M332.541 70.3248C335.668 70.3248 338.203 67.7893 338.203 64.6617C338.203 61.534 335.668 58.9985 332.541 58.9985C329.415 58.9985 326.88 61.534 326.88 64.6617C326.88 67.7893 329.415 70.3248 332.541 70.3248Z" fill="#196C67" fill-opacity="0.15"/>
<path d="M356.706 69.5827C361.173 69.5827 364.794 65.9606 364.794 61.4925C364.794 57.0244 361.173 53.4023 356.706 53.4023C352.239 53.4023 348.618 57.0244 348.618 61.4925C348.618 65.9606 352.239 69.5827 356.706 69.5827Z" fill="#196C67" fill-opacity="0.15"/>
<path d="M382.099 122.835H407.643" stroke="#196C67" stroke-opacity="0.15" stroke-width="3" stroke-miterlimit="10" stroke-linecap="round"/>
<path d="M382.099 130.2H407.643" stroke="#196C67" stroke-opacity="0.15" stroke-width="3" stroke-miterlimit="10" stroke-linecap="round"/>
<path d="M382.099 137.564H407.643" stroke="#196C67" stroke-opacity="0.15" stroke-width="3" stroke-miterlimit="10" stroke-linecap="round"/>
<path d="M89.2881 291.26H114.832" stroke="#196C67" stroke-opacity="0.15" stroke-width="3" stroke-miterlimit="10" stroke-linecap="round"/>
<path d="M89.2881 298.625H114.832" stroke="#196C67" stroke-opacity="0.15" stroke-width="3" stroke-miterlimit="10" stroke-linecap="round"/>
<path d="M89.2881 305.99H114.832" stroke="#196C67" stroke-opacity="0.15" stroke-width="3" stroke-miterlimit="10" stroke-linecap="round"/>
<path d="M139.263 43.1772H164.807" stroke="#196C67" stroke-opacity="0.15" stroke-width="3" stroke-miterlimit="10" stroke-linecap="round"/>
<path d="M139.263 50.542H164.807" stroke="#196C67" stroke-opacity="0.15" stroke-width="3" stroke-miterlimit="10" stroke-linecap="round"/>
<path d="M139.263 57.9067H164.807" stroke="#196C67" stroke-opacity="0.15" stroke-width="3" stroke-miterlimit="10" stroke-linecap="round"/>
<path d="M395.905 298.438C401.935 298.438 406.823 293.548 406.823 287.516C406.823 281.484 401.935 276.594 395.905 276.594C389.875 276.594 384.986 281.484 384.986 287.516C384.986 293.548 389.875 298.438 395.905 298.438Z" fill="#196C67" fill-opacity="0.15"/>
<path d="M367.092 301.061C370.219 301.061 372.753 298.526 372.753 295.398C372.753 292.27 370.219 289.735 367.092 289.735C363.965 289.735 361.431 292.27 361.431 295.398C361.431 298.526 363.965 301.061 367.092 301.061Z" fill="#196C67" fill-opacity="0.15"/>
<path d="M381.468 268.882C385.934 268.882 389.555 265.259 389.555 260.791C389.555 256.323 385.934 252.701 381.468 252.701C377.001 252.701 373.38 256.323 373.38 260.791C373.38 265.259 377.001 268.882 381.468 268.882Z" fill="#196C67" fill-opacity="0.15"/>
</svg>
